<svg t="1686369104163" class="icon" viewBox="0 0 1024 1024" version="1.1" xmlns="http://www.w3.org/2000/svg" p-id="23690" width="32" height="32"><path d="M288 512C164.266667 512 64 612.266667 64 736S164.266667 960 288 960 512 859.733333 512 736 411.733333 512 288 512z m0 384C200.533333 896 128 823.466667 128 736S200.533333 576 288 576s160 72.533333 160 160-72.533333 160-160 160zM763.733333 81.066667c-6.4-10.666667-17.066667-17.066667-27.733333-17.066667h-448c-10.666667 0-21.333333 6.4-27.733333 17.066667-6.4 10.666667-6.4 21.333333 0 32l224 384c6.4 8.533333 17.066667 14.933333 27.733333 14.933333s21.333333-6.4 27.733333-14.933333l224-384c6.4-10.666667 6.4-23.466667 0-32zM512 416L343.466667 128h337.066666L512 416zM928 544h-320c-17.066667 0-32 14.933333-32 32v320c0 17.066667 14.933333 32 32 32h320c17.066667 0 32-14.933333 32-32V576c0-17.066667-14.933333-32-32-32z m-32 320H640v-256h256v256z" fill="#707070" p-id="23691"></path></svg>
