<svg t="1686368972519" class="icon" viewBox="0 0 1024 1024" version="1.1" xmlns="http://www.w3.org/2000/svg" p-id="20434" width="32" height="32"><path d="M341.333333 160h512v-64H341.333333v64zM53.333333 512A160 160 0 0 0 213.333333 672v-64A96 96 0 0 1 117.333333 512h-64zM213.333333 352A160 160 0 0 0 53.333333 512h64A96 96 0 0 1 213.333333 416v-64zM736 512A160 160 0 0 0 896 672v-64A96 96 0 0 1 800 512h-64zM896 352A160 160 0 0 0 736 512h64A96 96 0 0 1 896 416v-64z m-298.666667 341.333333A160 160 0 0 0 437.333333 853.333333h64A96 96 0 0 1 597.333333 757.333333v-64zM757.333333 853.333333A160 160 0 0 0 597.333333 693.333333v64A96 96 0 0 1 693.333333 853.333333h64z m213.333334-512V213.333333h-64v128h64z m-64 341.333334v128h64v-128h-64zM768 928h85.333333v-64h-85.333333v64z m-341.333333-64H341.333333v64h85.333334v-64zM288 341.333333V213.333333h-64v128h64z m-64 341.333334v128h64v-128h-64zM896 672a10.666667 10.666667 0 0 1 10.666667 10.666667h64A74.666667 74.666667 0 0 0 896 608v64z m0-256A74.666667 74.666667 0 0 0 970.666667 341.333333h-64a10.666667 10.666667 0 0 1-10.666667 10.666667v64z m-682.666667 256a10.666667 10.666667 0 0 1 10.666667 10.666667h64A74.666667 74.666667 0 0 0 213.333333 608v64zM437.333333 853.333333a10.666667 10.666667 0 0 1-10.666666 10.666667v64A74.666667 74.666667 0 0 0 501.333333 853.333333h-64zM213.333333 416A74.666667 74.666667 0 0 0 288 341.333333h-64a10.666667 10.666667 0 0 1-10.666667 10.666667v64zM693.333333 853.333333c0 41.216 33.450667 74.666667 74.666667 74.666667v-64a10.666667 10.666667 0 0 1-10.666667-10.666667h-64zM341.333333 864c-29.44 0-53.333333-23.893333-53.333333-53.333333h-64A117.333333 117.333333 0 0 0 341.333333 928v-64zM906.666667 810.666667c0 29.44-23.893333 53.333333-53.333334 53.333333v64A117.333333 117.333333 0 0 0 970.666667 810.666667h-64zM853.333333 160c29.44 0 53.333333 23.893333 53.333334 53.333333h64A117.333333 117.333333 0 0 0 853.333333 96v64zM341.333333 96A117.333333 117.333333 0 0 0 224 213.333333h64c0-29.44 23.893333-53.333333 53.333333-53.333333v-64z" p-id="20435" fill="#707070"></path></svg>
