<svg t="1686369270559" class="icon" viewBox="0 0 1024 1024" version="1.1" xmlns="http://www.w3.org/2000/svg" p-id="30791" width="32" height="32"><path d="M768 85.333333a170.666667 170.666667 0 1 1 0 341.333334h-85.333333v170.666666h85.333333a170.666667 170.666667 0 1 1-170.666667 170.666667v-85.333333h-170.666666v85.333333a170.666667 170.666667 0 0 1-162.133334 170.453333L256 938.666667a170.666667 170.666667 0 1 1 0-341.333334h85.333333v-170.666666H256a170.666667 170.666667 0 1 1 170.666667-170.666667v85.333333h170.666666V256a170.666667 170.666667 0 0 1 162.133334-170.453333zM341.333333 682.666667H256l-6.4 0.213333A85.333333 85.333333 0 1 0 341.333333 768v-85.333333z m426.666667 0h-85.333333v85.333333a85.333333 85.333333 0 1 0 91.733333-85.12L768 682.666667z m-170.666667-256h-170.666666v170.666666h170.666666v-170.666666zM256 170.666667a85.333333 85.333333 0 0 0-6.4 170.453333L256 341.333333h85.333333V256a85.333333 85.333333 0 0 0-85.333333-85.333333z m512 0a85.333333 85.333333 0 0 0-85.333333 85.333333v85.333333h85.333333l6.4-0.213333A85.333333 85.333333 0 0 0 768 170.666667z" fill="#707070" p-id="30792"></path></svg>
