<svg data-v-17a60191="" data-v-13877386="" data-v-6805eed4="" version="1.0" xmlns="http://www.w3.org/2000/svg"
     xmlns:xlink="http://www.w3.org/1999/xlink" width="100%" height="100%" viewBox="0 0 160 110"
     preserveAspectRatio="xMidYMid meet" color-interpolation-filters="sRGB" style="margin: auto;">
    <rect x="0" y="0" width="100%" height="100%" fill="#fff" fill-opacity="0"
          class="background"></rect>
    <rect x="0" y="0" width="100%" height="100%" fill="url(#watermark)"
          fill-opacity="1" class="watermarklayer"></rect>
    <g fill="#f07818" transform="translate(-10,7)"
       class="icon-text-wrapper icon-svg-group iconsvg">
        <g transform="matrix(1,0,0,1,60.22999572753906,0)" opacity="1" class="iconsvg-imagesvg">
            <g>
                <rect fill="#f07818" fill-opacity="0" stroke-width="2" x="0" y="0" width="60"
                      height="61.29955046996322" class="image-rect"></rect>
                <svg data-v-17a60191="" x="0" y="0" width="60" height="61.29955046996322"
                     class="image-svg-svg primary" style="overflow: visible;">
                    <svg data-v-17a60191="" version="1.1" id="图层_1" xmlns="http://www.w3.org/2000/svg"
                         xmlns:xlink="http://www.w3.org/1999/xlink" x="0px" y="0px"
                         viewBox="6.239982604980469 -0.00047397613525390625 868.1939086914062 887.0025024414062"
                         enable-background="new 0 0 887 887" xml:space="preserve"><path fill="#78C0A8" d="M426.78,60.18c54.94-17.91,110.97-23.81,165.14-19.12c-69.07-14.46-142.76-11.71-214.66,11.74
	c-158.1,51.52-264.45,188.44-284.75,343h50.66C165.84,244.28,271.24,110.91,426.78,60.18z M447.78,84.25
	C302.21,131.71,202.49,254.8,177.83,395.79h48.73c26.75-138.01,125.5-257.78,268.65-304.44c52.58-17.15,106.21-22.81,158.09-18.34
	C587.15,59.16,516.64,61.82,447.78,84.25z M358.38,29.21C415.67,10.52,474.04,4.39,530.47,9.24
	C458.51-5.82,381.68-2.97,306.73,21.47C136.26,77.06,23.52,227.89,8.11,395.79h52.5C78.71,231,190.5,83.93,358.38,29.21z"></path>
                        <path fill="#EDAC43" d="M771.39,636.81c-11.94,56.54-34.84,108.02-66,152.62c47.05-52.61,81.51-117.78,97.18-191.78
	c34.39-162.69-30.99-323.27-154.73-418.12l-25.3,43.86C742.42,318.79,805.26,476.77,771.39,636.81z M740.04,642.97
	c31.71-149.8-25.05-297.71-134.85-389.55l-24.32,42.19C687,387.79,741.32,533.19,710.2,680.52
	c-11.46,54.12-33.4,103.35-63.16,146.06C692.08,776.22,725.04,713.78,740.04,642.97z M832.4,593.08
	c-12.44,58.93-36.29,112.52-68.73,159c49.07-54.82,84.93-122.75,101.26-199.86c37.09-175.43-37.12-348.49-174.85-445.79
	l-26.25,45.46C797.47,249.96,868.96,420.33,832.4,593.08z"></path>
                        <path fill="#F07818" d="M108.37,652.2C65.36,613.58,32.25,568.02,9.2,518.76c22.03,67.07,61.22,129.49,117.52,180.07
	c123.68,111.1,295.43,134.78,439.46,75.06l-25.33-43.87C398.27,786.16,230.08,761.56,108.37,652.2z M118.73,621.98
	c113.89,102.33,270.36,127.16,404.75,78.03l-24.32-42.21c-132.9,45.85-286.03,20.18-398.02-80.45
	c-41.17-36.98-72.82-80.58-94.9-127.73C27.33,513.82,64.87,573.58,118.73,621.98z M115.76,726.93
	c-44.82-40.23-79.33-87.7-103.35-139.04c22.92,69.88,63.8,134.94,122.43,187.64c133.38,119.85,320.38,142.06,473.53,71.44
	l-26.24-45.46C430.32,868.23,247.06,844.96,115.76,726.93z"></path></svg>
                </svg>
            </g>
        </g>
        <g transform="translate(0,68.2995491027832)">
            <g opacity="1" transform="matrix(1,0,0,1,0,0)">
                <g transform="scale(1)">
                    <g>
                        <path d="M13.02-0.13L9.66 1.77 4.75 1.8 0.51-0.66 2.25-2.53 5.54-0.53 8.6-0.53 10.32-1.44 10.14-2.81 2.33-5.56 1.92-8.93 4.65-11.53 10.11-11.58 13.12-8.93 11.02-7.71 8.95-9.51 6.32-9.53 5.06-8.32 5.16-6.95 12.57-4.27 13.02-0.13ZM22.1-12.14L28.24-9.53 28.09 1.47 25.51 1.82 25.49-7.79 22.17-9.08 17.52-7.16 17.47 1.49 14.64 1.82 14.64-10.54 17.55-10.44 17.55-10.21 22.1-12.14ZM31.55-12.06L30.27-15.04 32.9-16.03 34.13-12.44 31.55-12.06ZM31.13 1.72L31.13-11.07 33.88-10.95 33.81 1.42 31.13 1.72ZM45.11-11.23L48.19-7.76 48.04-3.11 44.53-0.08 38.84 0.03 38.76 6.93 36.38 7.21 36.16-11.63 38.96-11.25 38.96-11.1 45.11-11.23ZM45.61-4.75L45.61-6.73 44.12-8.62 38.94-8.6 38.86-2.93 43.69-2.91 45.61-4.75ZM59.17-11.23L62.25-7.76 62.1-3.11 58.58-0.08 52.9 0.03 52.82 6.93 50.44 7.21 50.21-11.63 53.02-11.25 53.02-11.1 59.17-11.23ZM59.67-4.75L59.67-6.73 58.18-8.62 53-8.6 52.92-2.93 57.75-2.91 59.67-4.75ZM75.68-3.94L78.03-2.17 74.49 1.52 67.38 1.47 63.77-2.91 64.02-8.22 68.22-12.14 73.68-12.14 77.62-8.22 77.27-5.31 69.61-3.79 69.05-6.25 74.72-7.33 72.64-9.61 69.48-9.66 66.57-6.65 66.55-3.84 68.9-1.09 73.17-1.29 75.68-3.94ZM88.27-9.48L84.7-9.51 84.42-2.88 88.14-1.06 87.13 1.62 81.97-1.04 81.95-9.53 79.32-9.56 79.04-11.98 81.95-12.09 81.95-15.4 84.96-15.3 84.83-12.16 88.55-12.29 88.27-9.48ZM102.07-0.13L98.71 1.77 93.81 1.8 89.56-0.66 91.3-2.53 94.59-0.53 97.65-0.53 99.37-1.44 99.19-2.81 91.38-5.56 90.97-8.93 93.7-11.53 99.17-11.58 102.17-8.93 100.08-7.71 98-9.51 95.37-9.53 94.11-8.32 94.21-6.95 101.62-4.27 102.07-0.13Z"
                              transform="translate(-0.5099999904632568, 17.219999313354492)"></path>
                    </g>
                    <g fill="#f07818" transform="translate(104.65999603271484,0)">
                        <g transform="scale(1)">
                            <path d="M16.74-0.03L14.61 1.74 12.9-0.4 8.75 1.72 3.21 0.28 0.51-5.71 3.94-11.38 9.73-12.14 15.02-9.25 14.94-2 16.74-0.03ZM5.39-2.05L8.75-1.19 12.36-2.98 12.39-7.48 9.38-9.05 5.54-8.65 3.74-5.51 5.39-2.05ZM34.29-0.4L32.14 1.49 30.7-0.43 27 1.74 21.21 0.91 17.75-4.65 20.46-10.92 25.99-12.49 29.51-10.59 29.41-17.22 32.16-16.99 32.29-2.71 34.29-0.4ZM26.62-1.54L29.63-3.21 29.56-7.51 25.99-9.36 22.68-8.47 20.99-4.88 22.78-1.97 26.62-1.54ZM49.2-11.83L54.79-9.99 54.66 1.42 52.01 1.69 51.98-8.29 49.61-8.95 46.25-7.23 46.14 1.21 43.69 1.52 43.69-8.47 41.29-9.13 38.66-7.74 38.63 1.49 35.8 1.82 35.8-11.15 38.69-11.02 38.69-10.75 41.24-12.14 46.22-10.21 49.2-11.83ZM58.1-12.06L56.81-15.04 59.44-16.03 60.68-12.44 58.1-12.06ZM57.67 1.72L57.67-11.07 60.43-10.95 60.35 1.42 57.67 1.72ZM70.16-12.14L76.31-9.53 76.16 1.47 73.58 1.82 73.55-7.79 70.24-9.08 65.59-7.16 65.54 1.49 62.71 1.82 62.71-10.54 65.61-10.44 65.61-10.21 70.16-12.14Z"
                                  transform="translate(-0.5099999904632568, 17.219999313354492)"></path>
                        </g>
                    </g>
                </g>
            </g>
        </g>
    </g>
    <defs></defs>
</svg>
